<?xml version="1.0" encoding="utf-8"?>
<!-- Generator: Adobe Illustrator 24.3.0, SVG Export Plug-In . SVG Version: 6.00 Build 0)  -->
<svg version="1.1" id="Camada_1" xmlns="http://www.w3.org/2000/svg" xmlns:xlink="http://www.w3.org/1999/xlink" x="0px" y="0px"
	 viewBox="0 0 150 150" style="enable-background:new 0 0 150 150;" xml:space="preserve">
<style type="text/css">
	.st0{fill:#FFFFFF;}
	.st1{fill:#138361;}
</style>
<circle class="st0" cx="75" cy="75" r="75"/>
<g>
	<g>
		<g>
			<path class="st1" d="M100.3,103l-42.8,4.5c-2.1,0.2-3.8-1.3-3.8-3.4V41l54.3-5.7v59.2C108,98.8,104.5,102.6,100.3,103z
				 M57.7,44.6v59.1l42.6-4.7c2-0.2,3.7-2,3.7-4.1V39.7L57.7,44.6z"/>
		</g>
		<g>
			<path class="st1" d="M53.4,42.8"/>
		</g>
		<path class="st1" d="M88,29.2l-43.9,4.6C43,34,42,35,42,36.1v63.5c0,1.3,0.7,2.5,1.8,3l37.5,18.2v-16.3l-4,0.4v9.2l-31.3-15V40.8
			l8.3,4.1l2.1-3.6l-7.7-3.9L88,33.3V29.2z"/>
		<g>
			<path class="st1" d="M60.3,106.5l17.9-1.7l-0.4,6.2c0,0,1.1,4.4,0.4,4.4C77.4,115.3,60.3,106.5,60.3,106.5z"/>
		</g>
		<polygon class="st1" points="74.7,78.9 71.5,76 94,51.1 97.3,54 		"/>
		<polygon class="st1" points="62.6,68.1 65.8,64.5 78,75.3 74.7,78.9 		"/>
		<polygon class="st1" points="91.4,64.9 94.7,67.8 80.2,83.8 76.9,80.9 		"/>
		<polygon class="st1" points="89.6,77.8 92.9,80.7 85.7,88.7 82.4,85.8 		"/>
		<polygon class="st1" points="89.3,34.2 89.2,34.2 49.7,38.4 50.6,38.9 90.5,34.7 		"/>
		<polygon class="st1" points="92.4,35.4 51.6,39.8 52.5,40.3 93.6,35.9 		"/>
	</g>
</g>
</svg>
