<?xml version="1.0" encoding="utf-8"?>
<!-- Generator: Adobe Illustrator 24.3.0, SVG Export Plug-In . SVG Version: 6.00 Build 0)  -->
<svg version="1.1" id="Layer_1" xmlns="http://www.w3.org/2000/svg" xmlns:xlink="http://www.w3.org/1999/xlink" x="0px" y="0px"
	 viewBox="0 0 95.3399963 78.1635361" style="enable-background:new 0 0 95.3399963 78.1635361;" xml:space="preserve">
<style type="text/css">
	.st0{fill:#FFFFFF;}
</style>
<path class="st0" d="M36.730011,54.3835297v16.0300064c0,4.8199997-2.8500061,7.75-7.4900055,7.75
	s-7.4899979-2.9300003-7.4899979-7.75V54.3835297c0-4.8199997,2.8499985-7.75,7.4899979-7.75
	C33.8899994,46.6235275,36.730011,49.56353,36.730011,54.3835297z M26.4000092,54.4235268V70.363533
	c0,2.2799988,1.0099945,3.5,2.8500061,3.5c1.8399963,0,2.8500061-1.2300034,2.8500061-3.5V54.4235268
	c0-2.2799988-1.0099945-3.5-2.8500061-3.5C27.4000092,50.9235268,26.4000092,52.143528,26.4000092,54.4235268z"/>
<path class="st0" d="M46.9900055,73.3435287h7.75v4.3799973H42.3500061V47.06353h4.6399994V73.3435287z"/>
<path class="st0" d="M72.2100067,51.4435272h-4.9499969v26.2800064h-4.6399994V51.4435272h-4.9499969v-4.3800011h14.5399933
	V51.4435272z"/>
<path class="st0" d="M93.2600098,50.9235268l-8.5399933,22.510006h8.5399933v4.2900009H79.6800079v-3.8499985l8.5399933-22.510006
	h-8.1000061v-4.2900009h13.1399994v3.8499985H93.2600098z"/>
<path class="st0" d="M29.480011,39.4535294h-4.6399994V8.7935295h4.6399994V39.4535294z"/>
<path class="st0" d="M51.9199982,13.1735296h-4.9499969v26.2799988h-4.6399994V13.1735296h-4.9499969V8.7935295h14.5399933
	V13.1735296z"/>
<path class="st0" d="M72.4300079,16.1135311V32.143528c0,4.8199997-2.8500061,7.75-7.4900055,7.75
	s-7.4900055-2.9300003-7.4900055-7.75V16.1135311c0-4.8200006,2.8500061-7.750001,7.4900055-7.750001
	C69.5800018,8.353529,72.4300079,11.2935295,72.4300079,16.1135311z M62.0899963,16.1535301v15.9399986
	c0,2.2799988,1.0099945,3.5,2.8500061,3.5c1.8399963,0,2.8500061-1.2299995,2.8500061-3.5V16.1535301
	c0-2.2800016-1.0099945-3.500001-2.8500061-3.500001C63.1000061,12.6535292,62.0899963,13.8735285,62.0899963,16.1535301z"/>
<path class="st0" d="M89.6999969,39.4535294l-3.6799927-12.9599972h-2.1499939v12.9599972H79.230011V8.7935295h6.6999969
	c4.9900055,0,7.7100067,2.7200003,7.7100067,7.7500019v2.1900005c0,3.2399998-1.1399994,5.5200005-3.2899933,6.7399998
	l4.25,13.9699993h-4.9000244V39.4535294z M83.8700104,13.0835295v9.1099997h1.8800049
	c2.2299957,0,3.2400055-1.1800003,3.2400055-3.7700005v-1.5799999c0-2.5800009-1.0099945-3.7700014-3.2400055-3.7700014h-1.8800049
	V13.0835295z"/>
<polygon class="st0" points="31.4400024,0.3635294 26.6900024,0.3635294 24.890007,5.1135292 29.6500092,5.1135292 "/>
<path class="st0" d="M4.5700073,47.2835274v16.9500084l6.8300018-2.010006V47.2835274h4.5099945V77.81353h-4.5100021V66.7735291
	l-6.8300018,1.9700012v9.0599976H0.0599976V47.2835274H4.5700073z"/>
<path class="st0" d="M0,33.5235291V9.1535292h4.5100021v22.1300011l3.4199982,2.7599964l3.4199982-2.7599964V9.1535292h4.5100021
	v24.3699989l-7.9300003,6.170002L0,33.5235291z"/>
</svg>
